[img]http://img43.imageshack.us/img43/1445/merebrotherkidulhanpost.jpg[/img]



Release : MERE BROTHER KI DULHAN DVD Rip !TAIMOOR!

Release Date: 	 9 September 2011  (INDIA)
  
Release Length: 2h 19mn

Plot Summary 
A young man tries to arrange a marriage for his brother, but finds himself falling in love with the chosen fiancée. 

Cast 
	Imran Khan	... 	Kush Agnihotri

	Katrina Kaif	... 	Dimple D. Dixit
	Ali Zafar	... 	Luv Agnihotri


General
Unique ID                        : 183312263373151881801954003142114526501 (0x89E8A8605CCDB6768F03C80F43DBC525)
Complete name                    : MERE BROTHER KI DULHAN DVD Rip !TAIMOOR!.mkv
Format                           : Matroska
Format version                   : Version 2
File size                        : 690 MiB
Duration                         : 2h 19mn
Overall bit rate                 : 691 Kbps
Encoded date                     : UTC 2011-10-13 15:53:51
Writing application              : mkvmerge v4.9.1 ('Ich will') built on Jul 11 2011 23:53:15
Writing library                  : libebml v1.2.1 + libmatroska v1.1.1

Video
ID                               : 1
Format                           : MPEG-4 Visual
Format profile                   : Advanced Simple@L5
Format settings, BVOP            : Yes
Format settings, QPel            : No
Format settings, GMC             : No warppoints
Format settings, Matrix          : Custom
Codec ID                         : XVID
Codec ID/Hint                    : XviD
Duration                         : 2h 19mn
Bit rate                         : 592 Kbps
Width                            : 640 pixels
Height                           : 272 pixels
Display aspect ratio             : 2.35:1
Frame rate                       : 23.976 fps
Color space                      : YUV
Chroma subsampling               : 4:2:0
Bit depth                        : 8 bits
Scan type                        : Progressive
Compression mode                 : Lossy
Bits/(Pixel*Frame)               : 0.142
Stream size                      : 590 MiB (86%)
Title                            : TAIMOOR!
Writing library                  : XviD 1.2.1 (UTC 2008-12-04)
Language                         : Hindi

Audio
ID                               : 2
Format                           : MPEG Audio
Format version                   : Version 1
Format profile                   : Layer 3
Mode                             : Joint stereo
Mode extension                   : MS Stereo
Muxing mode                      : Header stripping
Codec ID                         : A_MPEG/L3
Codec ID/Hint                    : MP3
Duration                         : 2h 19mn
Bit rate mode                    : Variable
Bit rate                         : 86.0 Kbps
Channel(s)                       : 2 channels
Sampling rate                    : 32.0 KHz
Compression mode                 : Lossy
Stream size                      : 85.8 MiB (12%)
Title                            : !TAIMOOR!
Writing library                  : LAME3.90.
Encoding settings                : -m j -V 4 -q 2 -lowpass 13.6 --abr 86
Language                         : Hindi



Screenshot

[img]http://img4.imageshack.us/img4/7272/50348533.jpg[/img]
[img]http://img26.imageshack.us/img26/6456/53660998.jpg[/img]
[img]http://img266.imageshack.us/img266/535/17242107.jpg[/img]

